<svg xmlns="http://www.w3.org/2000/svg" width="320" height="320" viewBox="0 0 320 320" version="1.1"><path d="M 250 75 L 250 110 240 110 L 230 110 230 115 L 230 120 225 120 L 220 120 220 140 L 220 160 245 160 L 270 160 270 155 L 270 150 275 150 L 280 150 280 145 L 280 140 285 140 L 290 140 290 130 L 290 120 285 120 L 280 120 280 90 L 280 60 275 60 L 270 60 270 55 L 270 50 265 50 L 260 50 260 45 L 260 40 255 40 L 250 40 250 75" stroke="none" fill="#575757" fill-rule="evenodd"/><path d="M 200 35 L 200 40 195 40 L 190 40 190 45 L 190 50 185 50 L 180 50 180 55 L 180 60 175 60 L 170 60 170 65 L 170 70 165 70 L 160 70 160 90 L 160 110 170 110 L 180 110 180 135 L 180 160 200 160 L 220 160 220 140 L 220 120 225 120 L 230 120 230 115 L 230 110 215 110 L 200 110 200 85 L 200 60 225 60 L 250 60 250 45 L 250 30 225 30 L 200 30 200 35" stroke="none" fill="#b3b3b3" fill-rule="evenodd"/><path d="M 200 85 L 200 110 225 110 L 250 110 250 85 L 250 60 225 60 L 200 60 200 85" stroke="none" fill="#aa0404" fill-rule="evenodd"/><path d="M 30 5 L 30 10 15 10 L 0 10 0 55 L 0 100 10 100 L 20 100 20 110 L 20 120 25 120 L 30 120 30 125 L 30 130 35 130 L 40 130 40 135 L 40 140 45 140 L 50 140 50 145 L 50 150 55 150 L 60 150 60 160 L 60 170 65 170 L 70 170 70 175 L 70 180 75 180 L 80 180 80 170 L 80 160 85 160 L 90 160 90 145 L 90 130 100 130 L 110 130 110 120 L 110 110 115 110 L 120 110 120 105 L 120 100 140 100 L 160 100 160 85 L 160 70 165 70 L 170 70 170 65 L 170 60 175 60 L 180 60 180 55 L 180 50 185 50 L 190 50 190 45 L 190 40 195 40 L 200 40 200 35 L 200 30 225 30 L 250 30 250 35 L 250 40 255 40 L 260 40 260 45 L 260 50 265 50 L 270 50 270 55 L 270 60 275 60 L 280 60 280 90 L 280 120 285 120 L 290 120 290 125 L 290 130 295 130 L 300 130 300 115 L 300 100 305 100 L 310 100 310 75 L 310 50 305 50 L 300 50 300 45 L 300 40 295 40 L 290 40 290 25 L 290 10 280 10 L 270 10 270 5 L 270 0 150 0 L 30 0 30 5 M 100 165 L 100 180 105 180 L 110 180 110 185 L 110 190 120 190 L 130 190 130 195 L 130 200 140 200 L 150 200 150 205 L 150 210 175 210 L 200 210 200 190 L 200 170 185 170 L 170 170 170 160 L 170 150 135 150 L 100 150 100 165" stroke="none" fill="#000000" fill-rule="evenodd"/><path d="M 60 200 L 60 220 65 220 L 70 220 70 230 L 70 240 80 240 L 90 240 90 250 L 90 260 100 260 L 110 260 110 265 L 110 270 115 270 L 120 270 120 275 L 120 280 160 280 L 200 280 200 265 L 200 250 175 250 L 150 250 150 240 L 150 230 140 230 L 130 230 130 225 L 130 220 115 220 L 100 220 100 205 L 100 190 105 190 L 110 190 110 185 L 110 180 100 180 L 90 180 90 185 L 90 190 85 190 L 80 190 80 185 L 80 180 70 180 L 60 180 60 200" stroke="none" fill="#4e402d" fill-rule="evenodd"/><path d="M 120 105 L 120 110 115 110 L 110 110 110 120 L 110 130 100 130 L 90 130 90 145 L 90 160 85 160 L 80 160 80 175 L 80 190 85 190 L 90 190 90 185 L 90 180 95 180 L 100 180 100 165 L 100 150 135 150 L 170 150 170 160 L 170 170 185 170 L 200 170 200 190 L 200 210 175 210 L 150 210 150 205 L 150 200 140 200 L 130 200 130 195 L 130 190 115 190 L 100 190 100 205 L 100 220 115 220 L 130 220 130 225 L 130 230 140 230 L 150 230 150 240 L 150 250 180 250 L 210 250 210 235 L 210 220 215 220 L 220 220 220 210 L 220 200 225 200 L 230 200 230 195 L 230 190 235 190 L 240 190 240 185 L 240 180 245 180 L 250 180 250 175 L 250 170 255 170 L 260 170 260 165 L 260 160 220 160 L 180 160 180 135 L 180 110 170 110 L 160 110 160 105 L 160 100 140 100 L 120 100 120 105" stroke="none" fill="#7f694a" fill-rule="evenodd"/><path d="M 0 140 L 0 180 5 180 L 10 180 10 200 L 10 220 15 220 L 20 220 20 225 L 20 230 25 230 L 30 230 30 235 L 30 240 35 240 L 40 240 40 250 L 40 260 45 260 L 50 260 50 265 L 50 270 55 270 L 60 270 60 275 L 60 280 70 280 L 80 280 80 290 L 80 300 85 300 L 90 300 90 305 L 90 310 95 310 L 100 310 100 315 L 100 320 180 320 L 260 320 260 310 L 260 300 265 300 L 270 300 270 295 L 270 290 275 290 L 280 290 280 285 L 280 280 285 280 L 290 280 290 270 L 290 260 295 260 L 300 260 300 255 L 300 250 305 250 L 310 250 310 240 L 310 230 314.838 230 L 319.675 230 320.336 191.750 L 320.997 153.500 320.786 126 L 320.575 98.500 320.254 109.250 L 319.932 120 309.966 120 L 300 120 300 125 L 300 130 295 130 L 290 130 290 135 L 290 140 285 140 L 280 140 280 145 L 280 150 275 150 L 270 150 270 155 L 270 160 265 160 L 260 160 260 165 L 260 170 255 170 L 250 170 250 175 L 250 180 245 180 L 240 180 240 185 L 240 190 235 190 L 230 190 230 195 L 230 200 225 200 L 220 200 220 210 L 220 220 215 220 L 210 220 210 235 L 210 250 205 250 L 200 250 200 265 L 200 280 160 280 L 120 280 120 275 L 120 270 115 270 L 110 270 110 265 L 110 260 100 260 L 90 260 90 250 L 90 240 80 240 L 70 240 70 230 L 70 220 65 220 L 60 220 60 200 L 60 180 65 180 L 70 180 70 175 L 70 170 65 170 L 60 170 60 160 L 60 150 55 150 L 50 150 50 145 L 50 140 45 140 L 40 140 40 135 L 40 130 35 130 L 30 130 30 125 L 30 120 25 120 L 20 120 20 110 L 20 100 10 100 L 0 100 0 140 M 0.456 140 L 0.456 180.500 0.749 160.250 L 1.041 140 0.749 119.750 L 0.456 99.500 0.456 140" stroke="none" fill="#f8cc8e" fill-rule="evenodd"/><path d="" stroke="none" fill="#fccc8c" fill-rule="evenodd"/><path d="" stroke="none" fill="#1f1512" fill-rule="evenodd"/></svg>